<?xml version="1.0" encoding="utf-8"?>
<!-- Generator: Adobe Illustrator 19.1.0, SVG Export Plug-In . SVG Version: 6.00 Build 0)  -->
<svg version="1.1" id="Layer_1" xmlns="http://www.w3.org/2000/svg" xmlns:xlink="http://www.w3.org/1999/xlink" x="0px" y="0px"
	 viewBox="0 0 177.3 70.5" enable-background="new 0 0 177.3 70.5" xml:space="preserve">
<g>
	<g>
		<path fill="#20303C" d="M108.1,28.2c0-4.8,0-10.4,0-16.7c-0.8,1-2.1,2-3.6,2.8c-2.8,1.5-4.8,2.6-6,3.2c-1.3,0.6-2.1,1.3-2.5,2.1
			c-0.4,0.8-0.6,1.2-0.6,1.3l0.1,49.6c2.2,0,3.7-0.1,4.5-0.2c1.7-0.1,3.4-0.8,5.1-2.3c1.9-1.6,2.9-3.5,3-5.8V51.5V32.9v-0.5
			c0-0.8,0-1.5,0-2.4c0-0.3,0-0.6,0-0.8C108.1,28.9,108.1,28.6,108.1,28.2z"/>
		<path fill="#20303C" d="M142.8,23.4c-0.2-0.2-1.2-1.8-3.1-4.5l-9.1-13.7c-1.7-2-3.7-3.4-6.1-4.2l-11.3-0.7l23.6,35.1l0.1,0.1h-0.1
			l-23.6,35h5.8c2.2-0.1,4-0.3,5.4-0.7c2.4-0.8,4.4-2.1,6.2-4l9.1-13.9c1.9-2.8,2.9-4.2,3.1-4.4c0.4-0.8,1.1-1.3,1.8-1.8
			c0.2-0.1,0.4-0.2,0.7-0.2c0.2,0.1,0.3,0.1,0.5,0.2c0.7,0.4,1.4,1,1.9,1.8c0.1,0.2,1.1,1.6,3,4.4l9.2,13.9c0.4,0.6,1,1.1,1.6,1.5
			c1.5,1.2,3,2,4.6,2.5c1.4,0.4,3.2,0.6,5.4,0.7h5.8l-23.5-35v-0.1l23.5-35.1h-5.8c-2.2,0.1-4,0.3-5.4,0.7c-2.5,0.7-4.5,2.2-6.2,4.2
			l-9.2,13.7c-1.8,2.8-2.8,4.3-3,4.5c-0.5,0.7-1.2,1.2-1.9,1.7c-0.2,0.1-0.4,0.2-0.5,0.3c-0.3-0.1-0.5-0.2-0.7-0.3
			C143.9,24.6,143.3,24.1,142.8,23.4z"/>
		<path fill="#FAAD4E" d="M106.9,8.1c1.4-2.7,2-5.4,1.7-8.1c-2.8,0.3-4.9,0.8-6.6,1.4c-1.3,0.6-2.5,1.4-3.5,2.6
			c-0.8,0.9-1.5,2-1.9,3.1c-0.4,0.7-0.6,1.5-0.7,2.4c-0.4,2.3-0.6,4.7-0.5,7.1c1.7-1.3,3.3-2.2,5-2.8c1.6-0.6,3-1.3,3.9-2.2
			C105.2,10.6,106.1,9.5,106.9,8.1z"/>
		<path fill="#20303C" d="M84.6,1c-1.4,0.3-2.7,0.9-3.8,1.8c-1.3,1.3-2.2,2.9-2.7,4.8L67.9,47.6l-8.1-30.8c-0.8-2.6-1.5-4.6-2.1-6.2
			c-0.7-1.8-1.5-3.1-2.2-3.8c-1.7-1.8-3.8-3-6.2-3.5c-0.4-0.1-0.9-0.1-1.4-0.2h-2.3c-0.5,0.1-0.9,0.1-1.3,0.2
			c-2.5,0.5-4.6,1.6-6.3,3.5c-0.7,0.7-1.5,2-2.3,3.8c-0.6,1.6-1.4,3.6-2.2,6.2l-8.1,30.8l-10.3-40l-0.8-2.4c-0.8-1.3-1.7-2.4-2.8-3
			C9.8,1.1,7.6,0.5,4.7,0.3C1.8,0.2,0.2,0.3,0,0.4l18.6,69.9c1.7,0.1,3.4,0.1,5.2-0.1c1.4-0.1,2.7-0.6,3.9-1.5
			c0.7-0.6,1.3-1.2,1.9-1.8c0.5-0.4,1-1,1.4-1.6c0.4-0.6,0.9-1.3,1.2-2.2c1.1-2.9,2.2-5.9,3.3-8.8L44.6,19l0.1-0.2
			c0.1-0.4,0.3-0.8,0.6-1.1c0.3-0.2,0.6-0.4,0.9-0.4c0.2-0.2,0.3-0.2,0.5-0.2c0.1,0,0.2,0,0.4,0.2c0.2,0.1,0.5,0.2,0.8,0.4
			c0.3,0.3,0.5,0.7,0.7,1.1l0.1,0.2l9,35.4c1.1,2.9,2.2,5.9,3.4,8.8c0.3,0.8,0.7,1.5,1.3,2.2c0.4,0.6,0.8,1.1,1.3,1.6
			c0.7,0.6,1.3,1.2,1.9,1.8c1.3,0.8,2.6,1.3,4,1.5c1.7,0.2,3.5,0.3,5.2,0.1l18.2-70C90.2,0.2,87.4,0.4,84.6,1z"/>
	</g>
</g>
</svg>